# Blender v3.2.1 OBJ File: ''
# www.blender.org
mtllib e.mtl
o Text.004_Mesh.004
v 0.141210 0.046000 -0.146470
v -0.009164 0.046000 -0.146470
v -0.009164 0.046000 -0.045316
v 0.110999 0.046000 -0.045316
v 0.110999 0.046000 0.045316
v -0.009164 0.046000 0.045316
v -0.009164 0.046000 0.146470
v 0.141210 0.046000 0.146470
v 0.141210 0.046000 0.237441
v -0.100134 0.046000 0.237441
v -0.100134 0.046000 -0.237441
v 0.141210 0.046000 -0.237441
v 0.141210 -0.046000 -0.146470
v -0.009164 -0.046000 -0.146470
v -0.009164 -0.046000 -0.045316
v 0.110999 -0.046000 -0.045316
v 0.110999 -0.046000 0.045316
v -0.009164 -0.046000 0.045316
v -0.009164 -0.046000 0.146470
v 0.141210 -0.046000 0.146470
v 0.141210 -0.046000 0.237441
v -0.100134 -0.046000 0.237441
v -0.100134 -0.046000 -0.237441
v 0.141210 -0.046000 -0.237441
v 0.141210 -0.046000 -0.146470
v 0.141210 0.046000 -0.146470
v -0.009164 -0.046000 -0.146470
v -0.009164 0.046000 -0.146470
v -0.009164 -0.046000 -0.045316
v -0.009164 0.046000 -0.045316
v 0.110999 -0.046000 -0.045316
v 0.110999 0.046000 -0.045316
v 0.110999 -0.046000 0.045316
v 0.110999 0.046000 0.045316
v -0.009164 -0.046000 0.045316
v -0.009164 0.046000 0.045316
v -0.009164 -0.046000 0.146470
v -0.009164 0.046000 0.146470
v 0.141210 -0.046000 0.146470
v 0.141210 0.046000 0.146470
v 0.141210 -0.046000 0.237441
v 0.141210 0.046000 0.237441
v -0.100134 -0.046000 0.237441
v -0.100134 0.046000 0.237441
v -0.100134 -0.046000 -0.237441
v -0.100134 0.046000 -0.237441
v 0.141210 -0.046000 -0.237441
v 0.141210 0.046000 -0.237441
vn 0.0000 1.0000 -0.0000
vn 0.0000 -1.0000 0.0000
vn 0.7071 0.0000 0.7071
vn 0.7071 -0.0000 -0.7071
vn -0.7071 0.0000 0.7071
vn -0.7071 -0.0000 -0.7071
usemtl Material.005
s 1
f 10//1 2//1 11//1
f 2//1 12//1 11//1
f 2//1 1//1 12//1
f 10//1 3//1 2//1
f 10//1 6//1 3//1
f 6//1 4//1 3//1
f 6//1 5//1 4//1
f 10//1 7//1 6//1
f 10//1 8//1 7//1
f 10//1 9//1 8//1
f 14//2 22//2 23//2
f 24//2 14//2 23//2
f 13//2 14//2 24//2
f 15//2 22//2 14//2
f 18//2 22//2 15//2
f 16//2 18//2 15//2
f 17//2 18//2 16//2
f 19//2 22//2 18//2
f 20//2 22//2 19//2
f 21//2 22//2 20//2
f 26//3 28//3 27//3 25//3
f 28//3 30//4 29//4 27//3
f 30//4 32//4 31//4 29//4
f 32//4 34//3 33//3 31//4
f 34//3 36//3 35//3 33//3
f 36//3 38//4 37//4 35//3
f 38//4 40//4 39//4 37//4
f 40//4 42//3 41//3 39//4
f 42//3 44//5 43//5 41//3
f 44//5 46//6 45//6 43//5
f 46//6 48//4 47//4 45//6
f 48//4 26//3 25//3 47//4
