# Blender v3.2.1 OBJ File: ''
# www.blender.org
mtllib k.mtl
o Text.010_Mesh.010
v 0.049058 0.046000 0.000167
v 0.185175 0.046000 0.237438
v 0.083681 0.046000 0.237438
v -0.029354 0.046000 0.040222
v -0.029354 0.046000 0.237438
v -0.120324 0.046000 0.237438
v -0.120324 0.046000 -0.237443
v -0.029354 0.046000 -0.237443
v -0.029354 0.046000 -0.039887
v 0.083681 0.046000 -0.237443
v 0.185175 0.046000 -0.237443
v 0.049058 -0.046000 0.000167
v 0.185175 -0.046000 0.237438
v 0.083681 -0.046000 0.237438
v -0.029354 -0.046000 0.040222
v -0.029354 -0.046000 0.237438
v -0.120324 -0.046000 0.237438
v -0.120324 -0.046000 -0.237443
v -0.029354 -0.046000 -0.237443
v -0.029354 -0.046000 -0.039887
v 0.083681 -0.046000 -0.237443
v 0.185175 -0.046000 -0.237443
v 0.049058 -0.046000 0.000167
v 0.049058 0.046000 0.000167
v 0.185175 -0.046000 0.237438
v 0.185175 0.046000 0.237438
v 0.083681 -0.046000 0.237438
v 0.083681 0.046000 0.237438
v -0.029354 -0.046000 0.040222
v -0.029354 0.046000 0.040222
v -0.029354 -0.046000 0.237438
v -0.029354 0.046000 0.237438
v -0.120324 -0.046000 0.237438
v -0.120324 0.046000 0.237438
v -0.120324 -0.046000 -0.237443
v -0.120324 0.046000 -0.237443
v -0.029354 -0.046000 -0.237443
v -0.029354 0.046000 -0.237443
v -0.029354 -0.046000 -0.039887
v -0.029354 0.046000 -0.039887
v 0.083681 -0.046000 -0.237443
v 0.083681 0.046000 -0.237443
v 0.185175 -0.046000 -0.237443
v 0.185175 0.046000 -0.237443
vn -0.0000 1.0000 -0.0000
vn -0.0000 -1.0000 0.0000
vn 1.0000 -0.0000 -0.0003
vn 0.8653 0.0000 0.5012
vn -0.5014 0.0000 0.8652
vn 0.2573 0.0000 0.9663
vn 0.7071 0.0000 0.7071
vn -0.7071 0.0000 0.7071
vn -0.7071 -0.0000 -0.7071
vn 0.7071 -0.0000 -0.7071
vn 0.2569 -0.0000 -0.9664
vn -0.5017 -0.0000 -0.8650
vn 0.8652 -0.0000 -0.5015
usemtl Material.011
s 1
f 6//1 8//1 7//1
f 6//1 9//1 8//1
f 9//1 11//1 10//1
f 9//1 1//1 11//1
f 6//1 4//1 9//1
f 4//1 1//1 9//1
f 4//1 2//1 1//1
f 6//1 5//1 4//1
f 3//1 2//1 4//1
f 19//2 17//2 18//2
f 20//2 17//2 19//2
f 22//2 20//2 21//2
f 12//2 20//2 22//2
f 15//2 17//2 20//2
f 12//2 15//2 20//2
f 13//2 15//2 12//2
f 16//2 17//2 15//2
f 13//2 14//2 15//2
f 24//3 26//4 25//4 23//3
f 26//4 28//5 27//5 25//4
f 28//5 30//6 29//6 27//5
f 30//6 32//7 31//7 29//6
f 32//7 34//8 33//8 31//7
f 34//8 36//9 35//9 33//8
f 36//9 38//10 37//10 35//9
f 38//10 40//11 39//11 37//10
f 40//11 42//12 41//12 39//11
f 42//12 44//13 43//13 41//12
f 44//13 24//3 23//3 43//13
