# Blender v3.2.1 OBJ File: ''
# www.blender.org
mtllib m.mtl
o Text.012_Mesh.012
v 0.174813 0.046000 -0.247061
v 0.174813 0.046000 0.227820
v 0.083842 0.046000 0.227820
v 0.083842 0.046000 0.035356
v 0.039036 0.046000 0.227820
v -0.039036 0.046000 0.227820
v -0.083842 0.046000 0.035356
v -0.083842 0.046000 0.227820
v -0.174813 0.046000 0.227820
v -0.174813 0.046000 -0.247061
v -0.076375 0.046000 -0.247061
v 0.000000 0.046000 -0.014882
v 0.076375 0.046000 -0.247061
v 0.174813 -0.046000 -0.247061
v 0.174813 -0.046000 0.227820
v 0.083842 -0.046000 0.227820
v 0.083842 -0.046000 0.035356
v 0.039036 -0.046000 0.227820
v -0.039036 -0.046000 0.227820
v -0.083842 -0.046000 0.035356
v -0.083842 -0.046000 0.227820
v -0.174813 -0.046000 0.227820
v -0.174813 -0.046000 -0.247061
v -0.076375 -0.046000 -0.247061
v 0.000000 -0.046000 -0.014882
v 0.076375 -0.046000 -0.247061
v 0.174813 -0.046000 -0.247061
v 0.174813 0.046000 -0.247061
v 0.174813 -0.046000 0.227820
v 0.174813 0.046000 0.227820
v 0.083842 -0.046000 0.227820
v 0.083842 0.046000 0.227820
v 0.083842 -0.046000 0.035356
v 0.083842 0.046000 0.035356
v 0.039036 -0.046000 0.227820
v 0.039036 0.046000 0.227820
v -0.039036 -0.046000 0.227820
v -0.039036 0.046000 0.227820
v -0.083842 -0.046000 0.035356
v -0.083842 0.046000 0.035356
v -0.083842 -0.046000 0.227820
v -0.083842 0.046000 0.227820
v -0.174813 -0.046000 0.227820
v -0.174813 0.046000 0.227820
v -0.174813 -0.046000 -0.247061
v -0.174813 0.046000 -0.247061
v -0.076375 -0.046000 -0.247061
v -0.076375 0.046000 -0.247061
v 0.000000 -0.046000 -0.014882
v 0.000000 0.046000 -0.014882
v 0.076375 -0.046000 -0.247061
v 0.076375 0.046000 -0.247061
vn -0.0000 1.0000 -0.0000
vn -0.0000 -1.0000 0.0000
vn 0.7071 -0.0000 -0.7071
vn 0.7071 0.0000 0.7071
vn -0.7071 0.0000 0.7071
vn -0.1141 0.0000 0.9935
vn 0.6218 0.0000 0.7832
vn -0.6218 0.0000 0.7832
vn 0.1141 0.0000 0.9935
vn -0.7071 -0.0000 -0.7071
vn 0.5863 -0.0000 -0.8101
vn 0.0000 -0.0000 -1.0000
vn -0.5863 -0.0000 -0.8101
usemtl Material.013
s 1
f 9//1 11//1 10//1
f 9//1 7//1 11//1
f 7//1 12//1 11//1
f 12//1 1//1 13//1
f 12//1 4//1 1//1
f 4//1 2//1 1//1
f 7//1 4//1 12//1
f 9//1 8//1 7//1
f 6//1 4//1 7//1
f 6//1 5//1 4//1
f 3//1 2//1 4//1
f 24//2 22//2 23//2
f 20//2 22//2 24//2
f 25//2 20//2 24//2
f 14//2 25//2 26//2
f 17//2 25//2 14//2
f 15//2 17//2 14//2
f 17//2 20//2 25//2
f 21//2 22//2 20//2
f 17//2 19//2 20//2
f 18//2 19//2 17//2
f 15//2 16//2 17//2
f 28//3 30//4 29//4 27//3
f 30//4 32//5 31//5 29//4
f 32//5 34//6 33//6 31//5
f 34//6 36//7 35//7 33//6
f 36//7 38//8 37//8 35//7
f 38//8 40//9 39//9 37//8
f 40//9 42//4 41//4 39//9
f 42//4 44//5 43//5 41//4
f 44//5 46//10 45//10 43//5
f 46//10 48//11 47//11 45//10
f 48//11 50//12 49//12 47//11
f 50//12 52//13 51//13 49//12
f 52//13 28//3 27//3 51//13
