# Blender v3.2.1 OBJ File: ''
# www.blender.org
mtllib o.mtl
o Text.014_Mesh.014
v -0.056120 0.046000 -0.146516
v -0.056120 0.046000 0.146423
v 0.056575 0.046000 0.146423
v 0.056575 0.046000 -0.146516
v 0.147206 0.046000 -0.167562
v 0.147206 0.046000 0.167808
v 0.077621 0.046000 0.237394
v -0.077505 0.046000 0.237394
v -0.147091 0.046000 0.167808
v -0.147091 0.046000 -0.167562
v -0.077505 0.046000 -0.237487
v 0.077621 0.046000 -0.237487
v -0.056120 -0.046000 -0.146516
v -0.056120 -0.046000 0.146423
v 0.056575 -0.046000 0.146423
v 0.056575 -0.046000 -0.146516
v 0.147206 -0.046000 -0.167562
v 0.147206 -0.046000 0.167808
v 0.077621 -0.046000 0.237394
v -0.077505 -0.046000 0.237394
v -0.147091 -0.046000 0.167808
v -0.147091 -0.046000 -0.167562
v -0.077505 -0.046000 -0.237487
v 0.077621 -0.046000 -0.237487
v -0.056120 -0.046000 -0.146516
v -0.056120 0.046000 -0.146516
v -0.056120 -0.046000 0.146423
v -0.056120 0.046000 0.146423
v 0.056575 -0.046000 0.146423
v 0.056575 0.046000 0.146423
v 0.056575 -0.046000 -0.146516
v 0.056575 0.046000 -0.146516
v 0.147206 -0.046000 -0.167562
v 0.147206 0.046000 -0.167562
v 0.147206 -0.046000 0.167808
v 0.147206 0.046000 0.167808
v 0.077621 -0.046000 0.237394
v 0.077621 0.046000 0.237394
v -0.077505 -0.046000 0.237394
v -0.077505 0.046000 0.237394
v -0.147091 -0.046000 0.167808
v -0.147091 0.046000 0.167808
v -0.147091 -0.046000 -0.167562
v -0.147091 0.046000 -0.167562
v -0.077505 -0.046000 -0.237487
v -0.077505 0.046000 -0.237487
v 0.077621 -0.046000 -0.237487
v 0.077621 0.046000 -0.237487
vn -0.0000 1.0000 -0.0000
vn 0.0000 -1.0000 0.0000
vn 0.7071 0.0000 0.7071
vn 0.7071 -0.0000 -0.7071
vn -0.7071 -0.0000 -0.7071
vn -0.7071 0.0000 0.7071
vn 0.9243 -0.0000 -0.3816
vn 0.9239 0.0000 0.3827
vn 0.3827 0.0000 0.9239
vn -0.3827 0.0000 0.9239
vn -0.9239 0.0000 0.3827
vn -0.9243 -0.0000 -0.3816
vn -0.3838 -0.0000 -0.9234
vn 0.3838 -0.0000 -0.9234
usemtl Material.015
s 1
f 10//1 12//1 11//1
f 10//1 5//1 12//1
f 9//1 1//1 10//1
f 1//1 5//1 10//1
f 1//1 4//1 5//1
f 4//1 6//1 5//1
f 9//1 2//1 1//1
f 3//1 6//1 4//1
f 9//1 3//1 2//1
f 9//1 6//1 3//1
f 8//1 6//1 9//1
f 8//1 7//1 6//1
f 24//2 22//2 23//2
f 17//2 22//2 24//2
f 13//2 21//2 22//2
f 17//2 13//2 22//2
f 16//2 13//2 17//2
f 18//2 16//2 17//2
f 14//2 21//2 13//2
f 18//2 15//2 16//2
f 15//2 21//2 14//2
f 18//2 21//2 15//2
f 18//2 20//2 21//2
f 19//2 20//2 18//2
f 26//3 28//4 27//4 25//3
f 28//4 30//5 29//5 27//4
f 30//5 32//6 31//6 29//5
f 32//6 26//3 25//3 31//6
f 34//7 36//8 35//8 33//7
f 36//8 38//9 37//9 35//8
f 38//9 40//10 39//10 37//9
f 40//10 42//11 41//11 39//10
f 42//11 44//12 43//12 41//11
f 44//12 46//13 45//13 43//12
f 46//13 48//14 47//14 45//13
f 48//14 34//7 33//7 47//14
