# Blender v3.2.1 OBJ File: ''
# www.blender.org
mtllib t.mtl
o Text.019_Mesh.019
v 0.133332 0.046000 -0.094674
v 0.045416 0.046000 -0.094674
v 0.045416 0.046000 0.289236
v -0.045555 0.046000 0.289236
v -0.045555 0.046000 -0.094674
v -0.133131 0.046000 -0.094674
v -0.133131 0.046000 -0.185645
v 0.133332 0.046000 -0.185645
v 0.133332 -0.046000 -0.094674
v 0.045416 -0.046000 -0.094674
v 0.045416 -0.046000 0.289236
v -0.045555 -0.046000 0.289236
v -0.045555 -0.046000 -0.094674
v -0.133131 -0.046000 -0.094674
v -0.133131 -0.046000 -0.185645
v 0.133332 -0.046000 -0.185645
v 0.133332 -0.046000 -0.094674
v 0.133332 0.046000 -0.094674
v 0.045416 -0.046000 -0.094674
v 0.045416 0.046000 -0.094674
v 0.045416 -0.046000 0.289236
v 0.045416 0.046000 0.289236
v -0.045555 -0.046000 0.289236
v -0.045555 0.046000 0.289236
v -0.045555 -0.046000 -0.094674
v -0.045555 0.046000 -0.094674
v -0.133131 -0.046000 -0.094674
v -0.133131 0.046000 -0.094674
v -0.133131 -0.046000 -0.185645
v -0.133131 0.046000 -0.185645
v 0.133332 -0.046000 -0.185645
v 0.133332 0.046000 -0.185645
vn 0.0000 1.0000 -0.0000
vn 0.0000 0.4473 0.8944
vn 0.0000 0.4472 -0.8944
vn 0.0000 -1.0000 0.0000
vn 0.0000 0.0000 1.0000
vn 0.7071 0.0000 0.7071
vn -0.7071 0.0000 0.7071
vn -0.7071 -0.0000 -0.7071
vn 0.7071 -0.0000 -0.7071
usemtl Material.020
s 1
f 6//1 8//1 7//1
f 6//1 1//1 8//1
f 5//2 1//1 6//1
f 4//1 2//3 5//2
f 2//3 1//1 5//2
f 4//1 3//1 2//3
f 16//4 14//4 15//4
f 9//4 14//4 16//4
f 9//5 13//5 14//5
f 10//4 12//4 13//4
f 9//5 10//5 13//5
f 11//4 12//4 10//4
f 18//6 20//6 19//6 17//6
f 20//6 22//6 21//6 19//6
f 22//6 24//7 23//7 21//6
f 24//7 26//7 25//7 23//7
f 26//7 28//7 27//7 25//7
f 28//7 30//8 29//8 27//7
f 30//8 32//9 31//9 29//8
f 32//9 18//6 17//6 31//9
