# Blender v3.2.1 OBJ File: ''
# www.blender.org
mtllib u.mtl
o Text.020_Mesh.020
v 0.147149 0.046000 -0.247514
v 0.147149 0.046000 0.157781
v 0.077563 0.046000 0.227367
v -0.077563 0.046000 0.227367
v -0.147149 0.046000 0.157781
v -0.147149 0.046000 -0.247514
v -0.056178 0.046000 -0.247514
v -0.056178 0.046000 0.136396
v 0.056178 0.046000 0.136396
v 0.056178 0.046000 -0.247514
v 0.147149 -0.046000 -0.247514
v 0.147149 -0.046000 0.157781
v 0.077563 -0.046000 0.227367
v -0.077563 -0.046000 0.227367
v -0.147149 -0.046000 0.157781
v -0.147149 -0.046000 -0.247514
v -0.056178 -0.046000 -0.247514
v -0.056178 -0.046000 0.136396
v 0.056178 -0.046000 0.136396
v 0.056178 -0.046000 -0.247514
v 0.147149 -0.046000 -0.247514
v 0.147149 0.046000 -0.247514
v 0.147149 -0.046000 0.157781
v 0.147149 0.046000 0.157781
v 0.077563 -0.046000 0.227367
v 0.077563 0.046000 0.227367
v -0.077563 -0.046000 0.227367
v -0.077563 0.046000 0.227367
v -0.147149 -0.046000 0.157781
v -0.147149 0.046000 0.157781
v -0.147149 -0.046000 -0.247514
v -0.147149 0.046000 -0.247514
v -0.056178 -0.046000 -0.247514
v -0.056178 0.046000 -0.247514
v -0.056178 -0.046000 0.136396
v -0.056178 0.046000 0.136396
v 0.056178 -0.046000 0.136396
v 0.056178 0.046000 0.136396
v 0.056178 -0.046000 -0.247514
v 0.056178 0.046000 -0.247514
vn 0.0000 1.0000 -0.0000
vn -0.0000 -1.0000 0.0000
vn 0.7071 -0.0000 -0.7071
vn 0.9239 0.0000 0.3827
vn 0.3827 0.0000 0.9239
vn -0.3827 0.0000 0.9239
vn -0.9239 0.0000 0.3827
vn -0.7071 -0.0000 -0.7071
usemtl Material.021
s 1
f 5//1 7//1 6//1
f 5//1 8//1 7//1
f 9//1 1//1 10//1
f 9//1 2//1 1//1
f 5//1 9//1 8//1
f 5//1 2//1 9//1
f 4//1 2//1 5//1
f 4//1 3//1 2//1
f 17//2 15//2 16//2
f 18//2 15//2 17//2
f 11//2 19//2 20//2
f 12//2 19//2 11//2
f 19//2 15//2 18//2
f 12//2 15//2 19//2
f 12//2 14//2 15//2
f 13//2 14//2 12//2
f 22//3 24//4 23//4 21//3
f 24//4 26//5 25//5 23//4
f 26//5 28//6 27//6 25//5
f 28//6 30//7 29//7 27//6
f 30//7 32//8 31//8 29//7
f 32//8 34//3 33//3 31//8
f 34//3 36//3 35//3 33//3
f 36//3 38//8 37//8 35//3
f 38//8 40//8 39//8 37//8
f 40//8 22//3 21//3 39//8
