# Blender v3.2.1 OBJ File: ''
# www.blender.org
v 0.045303 0.046000 0.062344
v 0.146457 0.046000 0.062344
v 0.146457 0.046000 -0.050012
v 0.045303 0.046000 -0.050012
v -0.045328 0.046000 -0.050012
v -0.146482 0.046000 -0.050012
v -0.146482 0.046000 0.062683
v -0.045328 0.046000 0.062683
v 0.167503 0.046000 0.153315
v 0.023918 0.046000 0.153315
v -0.000861 0.046000 0.128535
v -0.024962 0.046000 0.153315
v -0.167867 0.046000 0.153315
v -0.237453 0.046000 0.083729
v -0.237453 0.046000 -0.140983
v 0.237428 0.046000 -0.140983
v 0.237428 0.046000 0.083729
v 0.045303 -0.046000 0.062344
v 0.146457 -0.046000 0.062344
v 0.146457 -0.046000 -0.050012
v 0.045303 -0.046000 -0.050012
v -0.045328 -0.046000 -0.050012
v -0.146482 -0.046000 -0.050012
v -0.146482 -0.046000 0.062683
v -0.045328 -0.046000 0.062683
v 0.167503 -0.046000 0.153315
v 0.023918 -0.046000 0.153315
v -0.000861 -0.046000 0.128535
v -0.024962 -0.046000 0.153315
v -0.167867 -0.046000 0.153315
v -0.237453 -0.046000 0.083729
v -0.237453 -0.046000 -0.140983
v 0.237428 -0.046000 -0.140983
v 0.237428 -0.046000 0.083729
v 0.045303 -0.046000 0.062344
v 0.045303 0.046000 0.062344
v 0.146457 -0.046000 0.062344
v 0.146457 0.046000 0.062344
v 0.146457 -0.046000 -0.050012
v 0.146457 0.046000 -0.050012
v 0.045303 -0.046000 -0.050012
v 0.045303 0.046000 -0.050012
v -0.045328 -0.046000 -0.050012
v -0.045328 0.046000 -0.050012
v -0.146482 -0.046000 -0.050012
v -0.146482 0.046000 -0.050012
v -0.146482 -0.046000 0.062683
v -0.146482 0.046000 0.062683
v -0.045328 -0.046000 0.062683
v -0.045328 0.046000 0.062683
v 0.167503 -0.046000 0.153315
v 0.167503 0.046000 0.153315
v 0.023918 -0.046000 0.153315
v 0.023918 0.046000 0.153315
v -0.000861 -0.046000 0.128535
v -0.000861 0.046000 0.128535
v -0.024962 -0.046000 0.153315
v -0.024962 0.046000 0.153315
v -0.167867 -0.046000 0.153315
v -0.167867 0.046000 0.153315
v -0.237453 -0.046000 0.083729
v -0.237453 0.046000 0.083729
v -0.237453 -0.046000 -0.140983
v -0.237453 0.046000 -0.140983
v 0.237428 -0.046000 -0.140983
v 0.237428 0.046000 -0.140983
v 0.237428 -0.046000 0.083729
v 0.237428 0.046000 0.083729
vn 0.0000 1.0000 0.0000
vn 0.0000 -1.0000 0.0000
vn 0.7071 0.0000 -0.7071
vn -0.7071 0.0000 -0.7071
vn -0.7071 0.0000 0.7071
vn 0.7071 0.0000 0.7071
vn 0.3816 0.0000 0.9243
vn -0.3827 0.0000 0.9239
vn 0.0069 0.0000 1.0000
vn 0.3891 0.0000 0.9212
vn -0.9239 0.0000 0.3827
vn 0.9234 0.0000 0.3838
s 1
f 15//1 3//1 16//1
f 3//1 17//1 16//1
f 3//1 9//1 17//1
f 3//1 2//1 9//1
f 2//1 10//1 9//1
f 15//1 4//1 3//1
f 1//1 10//1 2//1
f 15//1 5//1 4//1
f 5//1 1//1 4//1
f 5//1 10//1 1//1
f 5//1 11//1 10//1
f 5//1 12//1 11//1
f 5//1 8//1 12//1
f 8//1 13//1 12//1
f 15//1 6//1 5//1
f 7//1 13//1 8//1
f 15//1 7//1 6//1
f 15//1 13//1 7//1
f 15//1 14//1 13//1
f 20//2 32//2 33//2
f 34//2 20//2 33//2
f 26//2 20//2 34//2
f 19//2 20//2 26//2
f 27//2 19//2 26//2
f 21//2 32//2 20//2
f 27//2 18//2 19//2
f 22//2 32//2 21//2
f 18//2 22//2 21//2
f 27//2 22//2 18//2
f 28//2 22//2 27//2
f 29//2 22//2 28//2
f 25//2 22//2 29//2
f 30//2 25//2 29//2
f 23//2 32//2 22//2
f 30//2 24//2 25//2
f 24//2 32//2 23//2
f 30//2 32//2 24//2
f 31//2 32//2 30//2
f 36//3 38//4 37//4 35//3
f 38//4 40//5 39//5 37//4
f 40//5 42//6 41//6 39//5
f 42//6 36//3 35//3 41//6
f 44//5 46//6 45//6 43//5
f 46//6 48//3 47//3 45//6
f 48//3 50//4 49//4 47//3
f 50//4 44//5 43//5 49//4
f 52//7 54//8 53//8 51//7
f 54//8 56//9 55//9 53//8
f 56//9 58//10 57//10 55//9
f 58//10 60//8 59//8 57//10
f 60//8 62//11 61//11 59//8
f 62//11 64//4 63//4 61//11
f 64//4 66//3 65//3 63//4
f 66//3 68//12 67//12 65//3
f 68//12 52//7 51//7 67//12
