# Blender v3.2.1 OBJ File: ''
# www.blender.org
o Text.016_Mesh.016
v 0.161594 0.046000 0.051719
v 0.161594 0.046000 -0.060977
v -0.131685 0.046000 -0.060977
v -0.131685 0.046000 -0.025675
v -0.091970 0.046000 0.015398
v -0.129309 0.046000 0.051719
v 0.182639 0.046000 0.142350
v -0.152730 0.046000 0.142350
v -0.187354 0.046000 0.107727
v -0.223335 0.046000 0.142350
v -0.286132 0.046000 0.076837
v -0.222656 0.046000 0.015059
v -0.222656 0.046000 -0.082362
v -0.152730 0.046000 -0.151947
v 0.182639 0.046000 -0.151947
v 0.252225 0.046000 -0.082362
v 0.252225 0.046000 0.072764
v 0.161594 -0.046000 0.051719
v 0.161594 -0.046000 -0.060977
v -0.131685 -0.046000 -0.060977
v -0.131685 -0.046000 -0.025675
v -0.091970 -0.046000 0.015398
v -0.129309 -0.046000 0.051719
v 0.182639 -0.046000 0.142350
v -0.152731 -0.046000 0.142350
v -0.187354 -0.046000 0.107727
v -0.223335 -0.046000 0.142350
v -0.286132 -0.046000 0.076837
v -0.222656 -0.046000 0.015059
v -0.222656 -0.046000 -0.082362
v -0.152731 -0.046000 -0.151947
v 0.182639 -0.046000 -0.151947
v 0.252225 -0.046000 -0.082362
v 0.252225 -0.046000 0.072764
v 0.161594 -0.046000 0.051719
v 0.161594 0.046000 0.051719
v 0.161594 -0.046000 -0.060977
v 0.161594 0.046000 -0.060977
v -0.131685 -0.046000 -0.060977
v -0.131685 0.046000 -0.060977
v -0.131685 -0.046000 -0.025675
v -0.131685 0.046000 -0.025675
v -0.091970 -0.046000 0.015398
v -0.091970 0.046000 0.015398
v -0.129309 -0.046000 0.051719
v -0.129309 0.046000 0.051719
v 0.182639 -0.046000 0.142350
v 0.182639 0.046000 0.142350
v -0.152731 -0.046000 0.142350
v -0.152730 0.046000 0.142350
v -0.187354 -0.046000 0.107727
v -0.187354 0.046000 0.107727
v -0.223335 -0.046000 0.142350
v -0.223335 0.046000 0.142350
v -0.286132 -0.046000 0.076837
v -0.286132 0.046000 0.076837
v -0.222656 -0.046000 0.015059
v -0.222656 0.046000 0.015059
v -0.222656 -0.046000 -0.082362
v -0.222656 0.046000 -0.082362
v -0.152731 -0.046000 -0.151947
v -0.152730 0.046000 -0.151947
v 0.182639 -0.046000 -0.151947
v 0.182639 0.046000 -0.151947
v 0.252225 -0.046000 -0.082362
v 0.252225 0.046000 -0.082362
v 0.252225 -0.046000 0.072764
v 0.252225 0.046000 0.072764
vn 0.0000 1.0000 0.0000
vn -0.0000 -1.0000 0.0000
vn -0.7071 0.0000 -0.7071
vn -0.7071 0.0000 0.7071
vn 0.7071 -0.0000 0.7071
vn 0.9271 -0.0000 -0.3749
vn 0.9999 -0.0000 0.0153
vn 0.9265 -0.0000 -0.3763
vn 0.3827 -0.0000 0.9239
vn -0.3827 0.0000 0.9239
vn -0.0096 0.0000 1.0000
vn -0.0202 -0.0000 0.9998
vn -0.9998 0.0000 -0.0174
vn -0.9213 0.0000 -0.3889
vn -0.9234 0.0000 -0.3838
vn -0.3816 0.0000 -0.9243
vn 0.3827 -0.0000 -0.9239
vn 0.9239 -0.0000 -0.3827
vn 0.9239 -0.0000 0.3827
s 1
f 15//1 17//1 16//1
f 15//1 7//1 17//1
f 14//1 2//1 15//1
f 2//1 7//1 15//1
f 2//1 1//1 7//1
f 1//1 8//1 7//1
f 14//1 3//1 2//1
f 6//1 8//1 1//1
f 4//1 6//1 5//1
f 4//1 8//1 6//1
f 14//1 4//1 3//1
f 14//1 8//1 4//1
f 13//1 8//1 14//1
f 13//1 9//1 8//1
f 13//1 12//1 9//1
f 12//1 10//1 9//1
f 11//1 10//1 12//1
f 34//2 32//2 33//2
f 24//2 32//2 34//2
f 19//2 31//2 32//2
f 24//2 19//2 32//2
f 18//2 19//2 24//2
f 25//2 18//2 24//2
f 20//2 31//2 19//2
f 25//2 23//2 18//2
f 23//2 21//2 22//2
f 25//2 21//2 23//2
f 21//2 31//2 20//2
f 25//2 31//2 21//2
f 25//2 30//2 31//2
f 26//2 30//2 25//2
f 29//2 30//2 26//2
f 27//2 29//2 26//2
f 27//2 28//2 29//2
f 36//3 38//4 37//4 35//3
f 38//4 40//5 39//5 37//4
f 40//5 42//6 41//6 39//5
f 42//6 44//7 43//7 41//6
f 44//7 46//8 45//8 43//7
f 46//8 36//3 35//3 45//8
f 48//9 50//10 49//10 47//9
f 50//10 52//11 51//11 49//10
f 52//11 54//12 53//12 51//11
f 54//12 56//13 55//13 53//12
f 56//13 58//14 57//14 55//13
f 58//14 60//15 59//15 57//14
f 60//15 62//16 61//16 59//15
f 62//16 64//17 63//17 61//16
f 64//17 66//18 65//18 63//17
f 66//18 68//19 67//19 65//18
f 68//19 48//9 47//9 67//19
