# Blender v3.2.1 OBJ File: ''
# www.blender.org
o Text.005_Mesh.005
v 0.107723 0.046000 0.154537
v 0.107723 0.046000 0.004163
v 0.006569 0.046000 0.004163
v 0.006569 0.046000 0.124326
v -0.084062 0.046000 0.124326
v -0.084062 0.046000 0.004163
v -0.276187 0.046000 0.004163
v -0.276187 0.046000 -0.086808
v 0.198694 0.046000 -0.086808
v 0.198694 0.046000 0.154537
v 0.107723 -0.046000 0.154537
v 0.107723 -0.046000 0.004163
v 0.006569 -0.046000 0.004163
v 0.006569 -0.046000 0.124326
v -0.084062 -0.046000 0.124326
v -0.084062 -0.046000 0.004163
v -0.276187 -0.046000 0.004163
v -0.276187 -0.046000 -0.086808
v 0.198694 -0.046000 -0.086808
v 0.198694 -0.046000 0.154537
v 0.107723 -0.046000 0.154537
v 0.107723 0.046000 0.154537
v 0.107723 -0.046000 0.004163
v 0.107723 0.046000 0.004163
v 0.006569 -0.046000 0.004163
v 0.006569 0.046000 0.004163
v 0.006569 -0.046000 0.124326
v 0.006569 0.046000 0.124326
v -0.084062 -0.046000 0.124326
v -0.084062 0.046000 0.124326
v -0.084062 -0.046000 0.004163
v -0.084062 0.046000 0.004163
v -0.276187 -0.046000 0.004163
v -0.276187 0.046000 0.004163
v -0.276187 -0.046000 -0.086808
v -0.276187 0.046000 -0.086808
v 0.198694 -0.046000 -0.086808
v 0.198694 0.046000 -0.086808
v 0.198694 -0.046000 0.154537
v 0.198694 0.046000 0.154537
vn 0.0000 1.0000 0.0000
vn -0.0000 -1.0000 0.0000
vn -0.7071 0.0000 0.7071
vn 0.7071 -0.0000 0.7071
vn -0.7071 0.0000 -0.7071
vn 0.7071 -0.0000 -0.7071
s 1
f 8//1 2//1 9//1
f 2//1 10//1 9//1
f 2//1 1//1 10//1
f 8//1 3//1 2//1
f 8//1 6//1 3//1
f 6//1 4//1 3//1
f 6//1 5//1 4//1
f 8//1 7//1 6//1
f 12//2 18//2 19//2
f 20//2 12//2 19//2
f 11//2 12//2 20//2
f 13//2 18//2 12//2
f 16//2 18//2 13//2
f 14//2 16//2 13//2
f 15//2 16//2 14//2
f 17//2 18//2 16//2
f 22//3 24//3 23//3 21//3
f 24//3 26//4 25//4 23//3
f 26//4 28//4 27//4 25//4
f 28//4 30//3 29//3 27//4
f 30//3 32//3 31//3 29//3
f 32//3 34//3 33//3 31//3
f 34//3 36//5 35//5 33//3
f 36//5 38//6 37//6 35//5
f 38//6 40//4 39//4 37//6
f 40//4 22//3 21//3 39//4
