# Blender v3.2.1 OBJ File: ''
# www.blender.org
o Text.015_Mesh.015
v 0.101776 0.046000 -0.029614
v -0.010919 0.046000 -0.029614
v -0.010919 0.046000 0.082741
v 0.101776 0.046000 0.082741
v 0.122821 0.046000 0.173712
v -0.031965 0.046000 0.173712
v -0.101551 0.046000 0.104126
v -0.101551 0.046000 -0.029614
v -0.282134 0.046000 -0.029614
v -0.282134 0.046000 -0.120585
v 0.192747 0.046000 -0.120585
v 0.192747 0.046000 0.104126
v 0.101776 -0.046000 -0.029614
v -0.010919 -0.046000 -0.029614
v -0.010919 -0.046000 0.082741
v 0.101776 -0.046000 0.082741
v 0.122821 -0.046000 0.173712
v -0.031965 -0.046000 0.173712
v -0.101551 -0.046000 0.104126
v -0.101551 -0.046000 -0.029614
v -0.282134 -0.046000 -0.029614
v -0.282134 -0.046000 -0.120585
v 0.192747 -0.046000 -0.120585
v 0.192747 -0.046000 0.104126
v 0.101776 -0.046000 -0.029614
v 0.101776 0.046000 -0.029614
v -0.010919 -0.046000 -0.029614
v -0.010919 0.046000 -0.029614
v -0.010919 -0.046000 0.082741
v -0.010919 0.046000 0.082741
v 0.101776 -0.046000 0.082741
v 0.101776 0.046000 0.082741
v 0.122821 -0.046000 0.173712
v 0.122821 0.046000 0.173712
v -0.031965 -0.046000 0.173712
v -0.031965 0.046000 0.173712
v -0.101551 -0.046000 0.104126
v -0.101551 0.046000 0.104126
v -0.101551 -0.046000 -0.029614
v -0.101551 0.046000 -0.029614
v -0.282134 -0.046000 -0.029614
v -0.282134 0.046000 -0.029614
v -0.282134 -0.046000 -0.120585
v -0.282134 0.046000 -0.120585
v 0.192747 -0.046000 -0.120585
v 0.192747 0.046000 -0.120585
v 0.192747 -0.046000 0.104126
v 0.192747 0.046000 0.104126
vn 0.0000 1.0000 0.0000
vn -0.0000 -1.0000 0.0000
vn -0.7071 0.0000 0.7071
vn 0.7071 -0.0000 0.7071
vn 0.7071 -0.0000 -0.7071
vn -0.7071 0.0000 -0.7071
vn 0.3816 -0.0000 0.9243
vn -0.3827 0.0000 0.9239
vn -0.9239 0.0000 0.3827
vn 0.9234 -0.0000 0.3838
s 1
f 10//1 1//1 11//1
f 1//1 12//1 11//1
f 1//1 5//1 12//1
f 1//1 4//1 5//1
f 4//1 6//1 5//1
f 10//1 2//1 1//1
f 3//1 6//1 4//1
f 10//1 8//1 2//1
f 8//1 3//1 2//1
f 8//1 6//1 3//1
f 8//1 7//1 6//1
f 10//1 9//1 8//1
f 13//2 22//2 23//2
f 24//2 13//2 23//2
f 17//2 13//2 24//2
f 16//2 13//2 17//2
f 18//2 16//2 17//2
f 14//2 22//2 13//2
f 18//2 15//2 16//2
f 20//2 22//2 14//2
f 15//2 20//2 14//2
f 18//2 20//2 15//2
f 19//2 20//2 18//2
f 21//2 22//2 20//2
f 26//3 28//4 27//4 25//3
f 28//4 30//5 29//5 27//4
f 30//5 32//6 31//6 29//5
f 32//6 26//3 25//3 31//6
f 34//7 36//8 35//8 33//7
f 36//8 38//9 37//9 35//8
f 38//9 40//3 39//3 37//9
f 40//3 42//3 41//3 39//3
f 42//3 44//6 43//6 41//3
f 44//6 46//5 45//5 43//6
f 46//5 48//10 47//10 45//5
f 48//10 34//7 33//7 47//10
