# Blender v3.2.1 OBJ File: ''
# www.blender.org
o Text.022_Mesh.022
v 0.230788 0.046000 0.242187
v -0.244093 0.046000 0.164455
v -0.244093 0.046000 0.057191
v 0.009471 0.046000 0.000164
v -0.244093 0.046000 -0.057541
v -0.244093 0.046000 -0.164466
v 0.230788 0.046000 -0.242198
v 0.230788 0.046000 -0.148512
v -0.025492 0.046000 -0.105063
v 0.230788 0.046000 -0.042266
v 0.230788 0.046000 0.042255
v -0.025492 0.046000 0.105052
v 0.230788 0.046000 0.148501
v 0.230788 -0.046000 0.242187
v -0.244093 -0.046000 0.164455
v -0.244093 -0.046000 0.057191
v 0.009471 -0.046000 0.000164
v -0.244093 -0.046000 -0.057541
v -0.244093 -0.046000 -0.164466
v 0.230788 -0.046000 -0.242198
v 0.230788 -0.046000 -0.148512
v -0.025492 -0.046000 -0.105063
v 0.230788 -0.046000 -0.042266
v 0.230788 -0.046000 0.042255
v -0.025492 -0.046000 0.105052
v 0.230788 -0.046000 0.148501
v 0.230788 -0.046000 0.242187
v 0.230788 0.046000 0.242187
v -0.244093 -0.046000 0.164455
v -0.244093 0.046000 0.164455
v -0.244093 -0.046000 0.057191
v -0.244093 0.046000 0.057191
v 0.009471 -0.046000 0.000164
v 0.009471 0.046000 0.000164
v -0.244093 -0.046000 -0.057541
v -0.244093 0.046000 -0.057541
v -0.244093 -0.046000 -0.164466
v -0.244093 0.046000 -0.164466
v 0.230788 -0.046000 -0.242198
v 0.230788 0.046000 -0.242198
v 0.230788 -0.046000 -0.148512
v 0.230788 0.046000 -0.148512
v -0.025492 -0.046000 -0.105063
v -0.025492 0.046000 -0.105063
v 0.230788 -0.046000 -0.042266
v 0.230788 0.046000 -0.042266
v 0.230788 -0.046000 0.042255
v 0.230788 0.046000 0.042255
v -0.025492 -0.046000 0.105052
v -0.025492 0.046000 0.105052
v 0.230788 -0.046000 0.148501
v 0.230788 0.046000 0.148501
vn 0.0000 1.0000 -0.0000
vn -0.0000 -1.0000 0.0000
vn 0.6475 -0.0000 0.7621
vn -0.7621 0.0000 0.6475
vn -0.7808 0.0000 -0.6247
vn -1.0000 0.0000 -0.0013
vn -0.7816 0.0000 0.6237
vn -0.7621 0.0000 -0.6475
vn 0.6475 -0.0000 -0.7621
vn 0.7639 -0.0000 0.6453
vn 0.9993 -0.0000 0.0362
vn 0.7868 -0.0000 -0.6173
vn 0.7868 -0.0000 0.6173
vn 0.9993 -0.0000 -0.0362
vn 0.7639 -0.0000 -0.6453
s 1
f 6//1 8//1 7//1
f 6//1 9//1 8//1
f 9//1 11//1 10//1
f 9//1 4//1 11//1
f 4//1 12//1 11//1
f 12//1 1//1 13//1
f 12//1 2//1 1//1
f 9//1 5//1 4//1
f 3//1 12//1 4//1
f 6//1 5//1 9//1
f 3//1 2//1 12//1
f 21//2 19//2 20//2
f 22//2 19//2 21//2
f 24//2 22//2 23//2
f 17//2 22//2 24//2
f 25//2 17//2 24//2
f 14//2 25//2 26//2
f 15//2 25//2 14//2
f 18//2 22//2 17//2
f 25//2 16//2 17//2
f 18//2 19//2 22//2
f 15//2 16//2 25//2
f 28//3 30//4 29//4 27//3
f 30//4 32//5 31//5 29//4
f 32//5 34//6 33//6 31//5
f 34//6 36//7 35//7 33//6
f 36//7 38//8 37//8 35//7
f 38//8 40//9 39//9 37//8
f 40//9 42//10 41//10 39//9
f 42//10 44//11 43//11 41//10
f 44//11 46//12 45//12 43//11
f 46//12 48//13 47//13 45//12
f 48//13 50//14 49//14 47//13
f 50//14 52//15 51//15 49//14
f 52//15 28//3 27//3 51//15
