# Blender v3.2.1 OBJ File: ''
# www.blender.org
o Text.019_Mesh.018
v -0.094674 0.046000 -0.133332
v -0.094674 0.046000 -0.045416
v 0.289236 0.046000 -0.045416
v 0.289236 0.046000 0.045555
v -0.094674 0.046000 0.045555
v -0.094674 0.046000 0.133131
v -0.185645 0.046000 0.133131
v -0.185645 0.046000 -0.133332
v -0.094674 -0.046000 -0.133332
v -0.094674 -0.046000 -0.045416
v 0.289236 -0.046000 -0.045416
v 0.289236 -0.046000 0.045555
v -0.094674 -0.046000 0.045555
v -0.094674 -0.046000 0.133131
v -0.185645 -0.046000 0.133131
v -0.185645 -0.046000 -0.133332
v -0.094674 -0.046000 -0.133332
v -0.094674 0.046000 -0.133332
v -0.094674 -0.046000 -0.045416
v -0.094674 0.046000 -0.045416
v 0.289236 -0.046000 -0.045416
v 0.289236 0.046000 -0.045416
v 0.289236 -0.046000 0.045555
v 0.289236 0.046000 0.045555
v -0.094674 -0.046000 0.045555
v -0.094674 0.046000 0.045555
v -0.094674 -0.046000 0.133131
v -0.094674 0.046000 0.133131
v -0.185645 -0.046000 0.133131
v -0.185645 0.046000 0.133131
v -0.185645 -0.046000 -0.133332
v -0.185645 0.046000 -0.133332
vn 0.0000 1.0000 0.0000
vn 0.0000 1.0000 0.0002
vn 0.0000 -1.0000 0.0002
vn 0.0000 0.4472 0.8944
vn 0.0000 -1.0000 0.0000
vn 0.0000 0.0000 0.0000
vn 0.7071 0.0000 -0.7071
vn 0.7071 0.0000 0.7071
vn -0.7071 0.0000 0.7071
vn -0.7071 0.0000 -0.7071
s 1
f 6//1 8//1 7//1
f 6//1 1//2 8//1
f 5//3 1//2 6//1
f 4//1 2//4 5//3
f 2//4 1//2 5//3
f 4//1 3//1 2//4
f 16//5 14//5 15//5
f 9//5 14//5 16//5
f 9//1 13//1 14//1
f 10//5 12//5 13//5
f 9//6 10//6 13//6
f 11//5 12//5 10//5
f 18//7 20//7 19//7 17//7
f 20//7 22//7 21//7 19//7
f 22//7 24//8 23//8 21//7
f 24//8 26//8 25//8 23//8
f 26//8 28//8 27//8 25//8
f 28//8 30//9 29//9 27//8
f 30//9 32//10 31//10 29//9
f 32//10 18//7 17//7 31//10
